
<svg xmlns="http://www.w3.org/2000/svg" version="1.1" xmlns:xlink="http://www.w3.org/1999/xlink" preserveAspectRatio="none" x="0px" y="0px" width="800px" height="1579px" viewBox="0 0 800 1579">
<defs>
<g id="Layer14_0_FILL">
<path fill="#FF0000" stroke="none" d="
M 147.75 994.9
Q 131.9 994.9 127.15 1000.7 124.45 1004 123.5 1011 122.45 1013.95 123.8 1050.7 125.15 1087.15 127.55 1121.15 128.75 1138 166.55 1156.5 176.55 1161.4 193.25 1168.2 206.15 1173.4 207.05 1174.4 207.6 1175 211.3 1174.2 215.2 1173.4 219.25 1171.65 230.35 1166.9 230.05 1160.85 229.65 1153.1 217.7 1125.65 207.15 1101.45 191.1 1069.65 175.7 1039.2 163.4 1017.75 150.25 994.9 147.75 994.9 Z"/>
</g>

<g id="Layer13_0_FILL">
<path fill="#FF0000" stroke="none" d="
M 601.1 1011
Q 600.15 1004 597.45 1000.7 592.7 994.9 576.85 994.9 574.35 994.9 561.2 1017.75 548.9 1039.2 533.5 1069.65 517.45 1101.45 506.9 1125.65 494.95 1153.1 494.55 1160.85 494.25 1166.9 505.35 1171.65 509.4 1173.4 513.3 1174.2 517 1175 517.55 1174.4 518.45 1173.4 531.35 1168.2 548.05 1161.4 558.05 1156.5 595.85 1138 597.05 1121.15 599.45 1087.15 600.8 1050.7 602.15 1013.95 601.1 1011 Z"/>
</g>

<g id="Layer12_0_FILL">
<path fill="#CC3300" stroke="none" d="
M 4 1311
L 4 1521 725 1521 725 1311 405.05 1456.25 405.05 1520.9 329 1520.9 329 1457.35 4 1311 Z"/>
</g>

<g id="Layer11_0_FILL">
<path fill="#CC3300" stroke="none" d="
M 110.1 738.85
Q 103.59921875 722.9671875 89.7 699.8 75.798828125 676.694140625 60.55 646.95 18.05 564.3 3.5 492.5
L 3.5 833.5
Q 26.25 816.9 46.7 802.15 86.847265625 773.2556640625 101.75 764 116.654296875 754.7326171875 110.1 738.85 Z"/>
</g>

<g id="Layer10_0_FILL">
<path fill="#CC3300" stroke="none" d="
M 750.6 223.45
Q 783.4 269.05 796 314
L 800 0 0 0
Q 0.05 307.15 0 314 21.8 257.1 59.4 209.1 97.7 160.35 149.15 125.1 202.4 88.55 265.75 69.25 332.3 49 406 49 480.65 49 550.25 74.05 613.35 96.75 666.95 137.85 716.2 175.65 750.6 223.45 Z"/>
</g>

<g id="Layer9_0_FILL">
<path fill="#CC3300" stroke="none" d="
M 275.5 182.5
Q 266.05 178.9 255.5 179.3 245.6 179.65 235.5 183.5 176.75 217.55 138.25 280.25 100.95 340.9 92.05 412.7 82.85 486.5 106.3 552.35 131.65 623.35 190.5 670.5 195.15 674.25 202.9 672.7 210.15 671.25 216.85 666.05 223.8 660.6 226.65 653.85 229.8 646.25 226.5 639.5 181.9 601.25 157.7 551.95 132.45 500.55 134.15 446.3 136 387.95 169.05 333.95 205.1 275.1 275.5 226.5 285.6 215.65 285.6 203.65 285.6 191.65 275.5 182.5 Z"/>
</g>

<g id="Layer8_0_FILL">
<path fill="#CC3300" stroke="none" d="
M 699.75 627.95
Q 709.9 633.05 716.6 640.1 724.1 647.95 724.5 655.5 725.2 669.5 719.35 689.9 712.45 713.65 700.5 729.5
L 725.5 744.5 726 782 685 803 725 804 724.5 1520.5 740.5 1520.5 743.5 517.5
Q 727.3 378.05 688.2 296.45 647.2 210.8 575.5 176.5 563 170.55 550.95 174.65 539.6 178.5 533.45 189.3 527 200.5 529.45 213.6 532.15 228.25 545.5 240.5 588.75 280.15 612.55 319.25 637.2 359.75 642.95 402.75 648.75 446.4 635.6 495.65 622.45 544.75 589.5 602.5 539.08984375 685.8353515625 633.5 688.5
L 669.5 626.5
Q 672.5 621.65 681.5 622.35 689.8 623 699.75 627.95 Z"/>
</g>

<g id="Layer5_0_FILL">
<path fill="#CC3300" stroke="none" d="
M 200.9 677.7
Q 197.7552734375 678.54140625 193 672 197.6837890625 693.3794921875 219.3 704.15 240.950390625 714.935546875 250.15 718.15 259.338671875 721.4181640625 260.95 722.55 262.562890625 723.685546875 257.7 741.4 252.8955078125 759.104296875 250.5 775.5 248.2 818.45 293.5 841.5
L 330.5 731.5
Q 247.8779296875 713.5462890625 225.95 695.2 204.08125 676.8546875 200.9 677.7 Z"/>
</g>

<g id="Layer4_0_FILL">
<path fill="#CC3300" stroke="none" d="
M 590 680
Q 583.02890625 684.36640625 580.7 686.65 578.367578125 688.9845703125 541.1 712.3 503.83515625 735.616015625 456.5 735.5
L 493.5 841.5
Q 540.6068359375 810.4908203125 537.5 792.5 541.2783203125 749.3330078125 517 728 571.6220703125 713.7908203125 590 680 Z"/>
</g>

<g id="Layer3_0_FILL">
<path fill="#CC3300" stroke="none" d="
M 64 1025
Q 59.978125 1013.4712890625 55 1021 53.785546875 1179.251171875 60.5 1223.5 119.908984375 1263.0560546875 196 1295
L 214 1260 81.5 1188.5
Q 69.7169921875 1143.783203125 64 1025 Z"/>
</g>

<g id="Layer2_0_FILL">
<path fill="#CC3300" stroke="none" d="
M 512 1259
L 530 1295
Q 605.1 1263.05 664.5 1223.5 671.2 1179.25 670 1026 666.95 1012.7564453125 661 1024 655.3 1143.8 643.5 1188.5
L 512 1259 Z"/>
</g>
</defs>

<g transform="matrix( 1, 0, 0, 1, 0,0) ">
<use xlink:href="#Layer14_0_FILL"/>
</g>

<g transform="matrix( 1, 0, 0, 1, 0,0) ">
<use xlink:href="#Layer13_0_FILL"/>
</g>

<g transform="matrix( 1, 0, 0, 1, 0,0) ">
<use xlink:href="#Layer12_0_FILL"/>
</g>

<g transform="matrix( 1, 0, 0, 1, 0,0) ">
<use xlink:href="#Layer11_0_FILL"/>
</g>

<g transform="matrix( 1, 0, 0, 1, 0,0) ">
<use xlink:href="#Layer10_0_FILL"/>
</g>

<g transform="matrix( 1, 0, 0, 1, 0,0) ">
<use xlink:href="#Layer9_0_FILL"/>
</g>

<g transform="matrix( 1, 0, 0, 1, 0,0) ">
<use xlink:href="#Layer8_0_FILL"/>
</g>

<g transform="matrix( 1, 0, 0, 1, 0,0) ">
<use xlink:href="#Layer5_0_FILL"/>
</g>

<g transform="matrix( 1, 0, 0, 1, 0,0) ">
<use xlink:href="#Layer4_0_FILL"/>
</g>

<g transform="matrix( 1, 0, 0, 1, 0,0) ">
<use xlink:href="#Layer3_0_FILL"/>
</g>

<g transform="matrix( 1, 0, 0, 1, 0,0) ">
<use xlink:href="#Layer2_0_FILL"/>
</g>
</svg>
